# Blender 3.6.2
# www.blender.org
mtllib Axis.mtl
o Cube
v -0.020000 -0.020000 -0.020000
v -0.020000 -0.020000 0.020000
v -0.020000 0.020000 -0.020000
v -0.020000 0.020000 0.020000
v 0.020000 -0.020000 -0.020000
v 0.020000 -0.020000 0.020000
v 0.020000 0.020000 -0.020000
v 0.020000 0.020000 0.020000
v 0.020000 0.020000 0.020000
v 0.020000 0.020000 -0.020000
v 0.020000 -0.020000 -0.020000
v 0.020000 -0.020000 0.020000
v 0.220000 0.002000 0.002000
v 0.220000 0.002000 -0.002000
v 0.220000 -0.002000 -0.002000
v 0.220000 -0.002000 0.002000
v -0.002000 -0.002000 0.220000
v -0.002000 0.002000 0.220000
v 0.002000 0.002000 0.220000
v 0.002000 -0.002000 0.220000
v -0.002000 0.220000 0.002000
v -0.002000 0.220000 -0.002000
v 0.002000 0.220000 -0.002000
v 0.002000 0.220000 0.002000
vn -1.0000 -0.0000 -0.0000
vn -0.0000 0.0896 0.9960
vn -0.0000 -0.0000 1.0000
vn -0.0000 -1.0000 -0.0000
vn -0.0000 -0.0000 -1.0000
vn -0.0000 -0.9960 0.0896
vn 0.0896 -0.0000 0.9960
vn 1.0000 -0.0000 -0.0000
vn 0.0896 0.9960 -0.0000
vn 0.0896 -0.9960 -0.0000
vn 0.0896 -0.0000 -0.9960
vn -0.0000 0.9960 0.0896
vn 0.9960 -0.0000 0.0896
vn -0.9960 -0.0000 0.0896
vn -0.0000 1.0000 -0.0000
vn -0.9960 0.0896 -0.0000
vn 0.9960 0.0896 -0.0000
vn -0.0000 0.0896 -0.9960
vt 0.375000 0.000000
vt 0.625000 0.000000
vt 0.625000 0.250000
vt 0.375000 0.250000
vt 0.625000 0.500000
vt 0.375000 0.750000
vt 0.375000 0.500000
vt 0.625000 0.750000
vt 0.625000 1.000000
vt 0.375000 1.000000
vt 0.125000 0.500000
vt 0.125000 0.750000
vt 0.875000 0.500000
vt 0.875000 0.750000
s 0
usemtl White
f 1/1/1 2/2/1 4/3/1 3/4/1
f 5/6/3 7/7/3 10/7/3 11/6/3
f 5/6/4 6/8/4 2/9/4 1/10/4
f 3/11/5 7/7/5 5/6/5 1/12/5
f 6/8/3 5/6/3 11/6/3 12/8/3
usemtl Red
f 9/5/7 12/8/7 16/8/7 13/5/7
f 14/7/8 13/5/8 16/8/8 15/6/8
f 10/7/9 9/5/9 13/5/9 14/7/9
f 12/8/10 11/6/10 15/6/10 16/8/10
f 11/6/11 10/7/11 14/7/11 15/6/11
usemtl Green
f 4/3/2 8/5/2 24/5/2 21/3/2
f 7/7/3 8/5/3 9/5/3 10/7/3
f 22/4/15 21/3/15 24/5/15 23/7/15
f 3/4/16 4/3/16 21/3/16 22/4/16
f 8/5/17 7/7/17 23/7/17 24/5/17
f 7/7/18 3/11/18 22/11/18 23/7/18
usemtl Blue
f 2/9/6 6/8/6 20/8/6 17/9/6
f 8/5/3 6/8/3 12/8/3 9/5/3
f 19/5/3 18/13/3 17/14/3 20/8/3
f 8/5/12 4/3/12 18/3/12 19/5/12
f 6/8/13 8/5/13 19/5/13 20/8/13
f 4/3/14 2/2/14 17/2/14 18/3/14
