# Blender 4.0.2
# www.blender.org
mtllib PartRed.mtl
o PartRed
v -0.100000 -0.500000 -1.000000
v -0.100000 -0.500000 -0.025000
v -0.100000 0.500000 -1.000000
v -0.100000 0.500000 -0.025000
v 0.100000 -0.500000 -1.000000
v 0.100000 -0.500000 -0.025000
v -0.050000 -0.350000 -0.025000
v -0.050000 -0.250000 -0.025000
v 0.050000 -0.350000 -0.025000
v -0.050000 0.250000 -0.025000
v 0.050000 0.250000 -0.025000
v -0.050000 -0.050000 -0.025000
v -0.050000 0.050000 -0.025000
v 0.050000 -0.050000 -0.025000
v 0.050000 -0.250000 -0.025000
v 0.050000 0.050000 -0.025000
v -0.050000 0.350000 -0.025000
v 0.100000 0.300000 -0.025000
v 0.100000 0.300000 -1.000000
v -0.050000 -0.350000 0.000000
v -0.050000 -0.250000 0.000000
v 0.050000 -0.350000 0.000000
v 0.050000 0.250000 0.000000
v -0.050000 0.250000 0.000000
v -0.050000 0.350000 0.000000
v -0.050000 -0.050000 0.000000
v -0.050000 0.050000 0.000000
v 0.050000 -0.050000 0.000000
vn -1.0000 -0.0000 -0.0000
vn -0.0000 -1.0000 -0.0000
vn -0.0000 -0.0000 1.0000
vn 0.7071 0.7071 -0.0000
vn -0.0000 -0.0000 -1.0000
vn 1.0000 -0.0000 -0.0000
vt 0.625000 0.000000
vt 0.375000 0.250000
vt 0.375000 0.000000
vt 0.625000 0.750000
vt 0.375000 1.000000
vt 0.375000 0.750000
vt 0.828377 0.636980
vt 0.820543 0.581130
vt 0.788965 0.580613
vt 0.785805 0.629134
vt 0.830531 0.665663
vt 0.785510 0.700767
vt 0.790797 0.673478
vt 0.875000 0.750000
vt 0.375000 0.500000
vt 0.625000 0.250000
vt 0.683294 0.385901
vt 0.657637 0.338073
vt 0.661304 0.385725
vt 0.625000 0.500000
vt 0.830896 0.707766
vt 0.625000 1.000000
s 0
usemtl Red
f 2/1/1 3/2/1 1/3/1
f 6/4/2 1/5/2 5/6/2
f 12/7/1 27/8/1 13/8/1
f 8/11/4 22/12/4 9/12/4
f 1/5/5 19/15/5 5/6/5
f 4/16/4 19/15/4 3/2/4
f 10/17/1 25/18/1 17/18/1
f 18/20/6 5/6/6 19/15/6
f 22/12/3 21/11/3 20/21/3
f 28/10/3 27/8/3 26/7/3
f 25/18/3 24/17/3 23/19/3
f 9/12/2 20/21/2 7/21/2
f 13/8/4 28/10/4 14/10/4
f 11/19/2 24/17/2 10/17/2
f 17/18/4 23/19/4 11/19/4
f 14/10/2 26/7/2 12/7/2
f 7/21/1 21/11/1 8/11/1
f 2/1/1 4/16/1 3/2/1
f 6/4/2 2/22/2 1/5/2
f 12/7/1 26/7/1 27/8/1
f 8/11/4 21/11/4 22/12/4
f 1/5/5 3/2/5 19/15/5
f 4/16/4 18/20/4 19/15/4
f 10/17/1 24/17/1 25/18/1
f 18/20/6 6/4/6 5/6/6
f 9/12/2 22/12/2 20/21/2
f 13/8/4 27/8/4 28/10/4
f 11/19/2 23/19/2 24/17/2
f 17/18/4 25/18/4 23/19/4
f 14/10/2 28/10/2 26/7/2
f 7/21/1 20/21/1 21/11/1
usemtl Material
f 16/9/3 14/10/3 6/4/3
f 15/13/3 8/11/3 9/12/3
f 14/10/3 16/9/3 13/8/3
f 9/12/3 2/14/3 6/4/3
f 8/11/3 12/7/3 2/14/3
f 17/18/3 11/19/3 18/20/3
f 4/16/3 2/14/3 12/7/3
f 4/16/3 12/7/3 13/8/3
f 10/17/3 4/16/3 13/8/3
f 10/17/3 13/8/3 16/9/3
f 15/13/3 9/12/3 6/4/3
f 14/10/3 8/11/3 15/13/3
f 11/19/3 10/17/3 16/9/3
f 14/10/3 15/13/3 6/4/3
f 6/4/3 11/19/3 16/9/3
f 9/12/3 7/21/3 2/14/3
f 8/11/3 14/10/3 12/7/3
f 2/14/3 7/21/3 8/11/3
f 4/16/3 10/17/3 17/18/3
f 11/19/3 6/4/3 18/20/3
f 4/16/3 17/18/3 18/20/3
