# Blender 4.0.2
# www.blender.org
mtllib PartGreen.mtl
o PartGreen
v -0.200000 -0.200000 -0.300000
v -0.200000 0.200000 -0.300000
v -0.200000 0.200000 0.100000
v 0.200000 -0.200000 -0.300000
v 0.200000 0.200000 -0.300000
v 0.100000 0.200000 0.000000
v 0.100000 0.100000 0.000000
v 0.100000 0.060000 0.000000
v 0.040000 0.200000 0.000000
v 0.040000 0.100000 0.000000
v 0.200000 0.060000 0.100000
v 0.200000 0.100000 0.000000
v 0.200000 0.060000 0.000000
v 0.200000 0.200000 0.000000
v 0.040000 0.100000 0.100000
v 0.040000 0.200000 0.100000
v 0.100000 0.060000 0.100000
v 0.100000 0.100000 0.100000
v 0.200000 -0.200000 0.000000
v 0.100000 -0.200000 0.000000
v 0.100000 -0.100000 0.000000
v 0.100000 -0.060000 0.000000
v 0.200000 -0.100000 0.000000
v 0.200000 -0.060000 0.100000
v 0.200000 -0.060000 0.000000
v 0.100000 -0.200000 0.100000
v 0.100000 -0.100000 0.100000
v 0.100000 -0.060000 0.100000
v -0.100000 -0.200000 0.000000
v -0.100000 -0.100000 0.000000
v -0.100000 -0.060000 0.000000
v -0.040000 -0.200000 0.000000
v -0.040000 -0.100000 0.000000
v -0.200000 -0.200000 0.000000
v -0.200000 -0.060000 0.100000
v -0.200000 -0.060000 0.000000
v -0.200000 -0.100000 0.000000
v -0.100000 -0.100000 0.100000
v -0.100000 -0.060000 0.100000
v -0.040000 -0.200000 0.100000
v -0.040000 -0.100000 0.100000
vn -1.0000 -0.0000 -0.0000
vn -0.0000 1.0000 -0.0000
vn 1.0000 -0.0000 -0.0000
vn -0.0000 -1.0000 -0.0000
vn -0.0000 -0.0000 -1.0000
vn -0.0000 -0.0000 1.0000
vt 0.375000 0.000000
vt 0.562500 0.062500
vt 0.562500 0.087500
vt 0.562500 0.400000
vt 0.562500 0.437500
vt 0.375000 0.500000
vt 0.375000 0.750000
vt 0.562500 0.587500
vt 0.562500 0.662500
vt 0.562500 0.812500
vt 0.625000 0.900000
vt 0.562500 0.900000
vt 0.125000 0.750000
vt 0.125000 0.500000
vt 0.725000 0.562500
vt 0.775000 0.687500
vt 0.687500 0.662500
vt 0.375000 0.500000
vt 0.625000 0.087500
vt 0.625000 0.250000
vt 0.375000 0.250000
vt 0.562500 0.000000
vt 0.562500 0.500000
vt 0.625000 0.400000
vt 0.562500 0.687500
vt 0.562500 0.750000
vt 0.562500 0.562500
vt 0.625000 0.587500
vt 0.625000 0.662500
vt 0.562500 0.937500
vt 0.562500 1.000000
vt 0.375000 1.000000
vt 0.625000 0.812500
vt 0.687500 0.587500
vt 0.687500 0.562500
vt 0.725000 0.500000
vt 0.875000 0.500000
vt 0.875000 0.662500
vt 0.812500 0.662500
vt 0.812500 0.687500
vt 0.775000 0.750000
vt 0.687500 0.750000
vt 0.687500 0.687500
s 0
usemtl Material
f 15/15/6 41/16/6 28/17/6
f 17/34/6 18/35/6 15/15/6
f 15/15/6 16/36/6 3/37/6
f 3/37/6 35/38/6 39/39/6
f 39/39/6 38/40/6 41/16/6
f 41/16/6 40/41/6 26/42/6
f 41/16/6 26/42/6 27/43/6
f 3/37/6 39/39/6 15/15/6
f 39/39/6 41/16/6 15/15/6
f 17/34/6 15/15/6 28/17/6
f 24/29/6 11/28/6 17/34/6
f 41/16/6 27/43/6 28/17/6
f 28/17/6 24/29/6 17/34/6
usemtl Green
f 1/1/1 37/2/1 36/3/1
f 9/4/2 6/5/2 5/6/2
f 4/7/3 13/8/3 25/9/3
f 20/10/4 40/11/4 32/12/4
f 5/6/5 1/13/5 2/14/5
f 6/7/6 12/18/6 14/18/6
f 8/7/6 12/18/6 7/7/6
f 10/7/2 18/7/2 7/7/2
f 13/6/2 17/7/2 11/6/2
f 8/7/3 18/7/3 17/7/3
f 10/7/3 16/7/3 15/7/3
f 7/7/6 9/7/6 10/7/6
f 20/6/6 23/7/6 21/6/6
f 21/6/6 25/7/6 22/6/6
f 22/6/4 24/7/4 28/6/4
f 21/6/3 28/6/3 27/6/3
f 20/6/3 27/6/3 26/6/3
f 29/7/6 37/18/6 34/18/6
f 30/7/6 36/6/6 37/18/6
f 30/7/4 41/7/4 38/7/4
f 36/6/4 39/7/4 35/6/4
f 30/7/1 39/7/1 31/7/1
f 32/7/1 41/7/1 33/7/1
f 30/7/6 32/7/6 33/7/6
f 36/3/1 35/19/1 3/20/1
f 3/20/1 2/21/1 36/3/1
f 2/21/1 1/1/1 36/3/1
f 1/1/1 34/22/1 37/2/1
f 6/5/2 14/23/2 5/6/2
f 5/6/2 2/21/2 9/4/2
f 2/21/2 3/20/2 9/4/2
f 3/20/2 16/24/2 9/4/2
f 23/25/3 19/26/3 4/7/3
f 4/7/3 5/6/3 13/8/3
f 5/6/3 14/23/3 12/27/3
f 5/6/3 12/27/3 13/8/3
f 25/9/3 23/25/3 4/7/3
f 11/28/3 24/29/3 25/9/3
f 13/8/3 11/28/3 25/9/3
f 29/30/4 34/31/4 1/32/4
f 1/32/4 4/7/4 32/12/4
f 4/7/4 19/26/4 20/10/4
f 20/10/4 26/33/4 40/11/4
f 4/7/4 20/10/4 32/12/4
f 32/12/4 29/30/4 1/32/4
f 5/6/5 4/7/5 1/13/5
f 6/7/6 7/7/6 12/18/6
f 8/7/6 13/6/6 12/18/6
f 10/7/2 15/7/2 18/7/2
f 13/6/2 8/7/2 17/7/2
f 8/7/3 7/7/3 18/7/3
f 10/7/3 9/7/3 16/7/3
f 7/7/6 6/7/6 9/7/6
f 20/6/6 19/7/6 23/7/6
f 21/6/6 23/7/6 25/7/6
f 22/6/4 25/7/4 24/7/4
f 21/6/3 22/6/3 28/6/3
f 20/6/3 21/6/3 27/6/3
f 29/7/6 30/7/6 37/18/6
f 30/7/6 31/7/6 36/6/6
f 30/7/4 33/7/4 41/7/4
f 36/6/4 31/7/4 39/7/4
f 30/7/1 38/7/1 39/7/1
f 32/7/1 40/7/1 41/7/1
f 30/7/6 29/7/6 32/7/6
