# Blender 4.0.2
# www.blender.org
mtllib DemoTool.mtl
o Tool
v 0.100000 -0.100000 -0.200000
v 0.100000 -0.100000 -0.000000
v -0.100000 -0.100000 -0.200000
v -0.100000 -0.100000 -0.000000
v 0.100000 0.100000 -0.200000
v 0.100000 0.100000 -0.000000
v -0.100000 0.100000 -0.200000
v -0.100000 0.100000 -0.000000
v -0.100000 -0.100000 -0.400000
v 0.100000 -0.100000 -0.400000
v -0.100000 0.100000 -0.400000
v 0.100000 0.100000 -0.400000
v 0.050000 0.200000 -0.250000
v -0.050000 0.200000 -0.250000
v 0.050000 0.200000 -0.350000
v -0.050000 0.200000 -0.350000
v 0.200000 -0.050000 -0.250000
v 0.200000 0.050000 -0.250000
v 0.200000 -0.050000 -0.350000
v 0.200000 0.050000 -0.350000
v 0.450000 -0.050000 -0.250000
v 0.450000 0.050000 -0.250000
v 0.450000 -0.050000 -0.350000
v 0.450000 0.050000 -0.350000
v 0.050000 0.450000 -0.250000
v -0.050000 0.450000 -0.250000
v 0.050000 0.450000 -0.350000
v -0.050000 0.450000 -0.350000
v 0.550000 -0.050000 -0.250000
v 0.450000 0.050000 -0.500000
v 0.550000 -0.050000 -0.350000
v 0.450000 -0.050000 -0.500000
v 0.550000 -0.050000 -0.500000
v 0.050000 0.550000 -0.250000
v -0.050000 0.550000 -0.250000
v 0.050000 0.550000 -0.350000
v -0.050000 0.550000 -0.350000
v 0.050000 0.450000 -0.500000
v -0.050000 0.450000 -0.500000
v 0.050000 0.550000 -0.500000
v -0.050000 0.550000 -0.500000
v 0.050000 0.590000 -0.350000
v -0.050000 0.590000 -0.350000
v 0.050000 0.590000 -0.500000
v -0.050000 0.590000 -0.500000
v 0.110000 0.450000 -0.350000
v 0.110000 0.550000 -0.350000
v 0.110000 0.450000 -0.500000
v 0.110000 0.550000 -0.500000
vn -0.0000 -1.0000 -0.0000
vn -1.0000 -0.0000 -0.0000
vn -0.0000 1.0000 -0.0000
vn 1.0000 -0.0000 -0.0000
vn 0.4472 -0.0000 0.8944
vn -0.0000 -0.0000 1.0000
vn -0.0000 -0.0000 -1.0000
vn -0.0000 0.4472 -0.8944
vn 0.8944 0.4472 -0.0000
vn -0.0000 0.4472 0.8944
vn -0.8944 0.4472 -0.0000
vn 0.4472 0.8944 -0.0000
vn 0.4472 -0.0000 -0.8944
vn 0.4472 -0.8944 -0.0000
vn 0.7071 0.7071 -0.0000
vt 0.375000 0.000000
vt 0.625000 0.000000
vt 0.625000 0.250000
vt 0.375000 0.250000
vt 0.625000 0.500000
vt 0.375000 0.500000
vt 0.625000 0.750000
vt 0.375000 0.750000
vt 0.625000 1.000000
vt 0.375000 1.000000
vt 0.875000 0.500000
vt 0.875000 0.750000
vt 0.125000 0.500000
vt 0.125000 0.750000
s 0
usemtl Material
f 1/1/1 2/2/1 4/3/1 3/4/1
f 3/4/2 4/3/2 8/5/2 7/6/2
f 7/6/3 8/5/3 6/7/3 5/8/3
f 5/8/4 6/7/4 2/9/4 1/10/4
f 5/8/5 1/10/5 17/10/5 18/8/5
f 8/5/6 4/11/6 2/12/6 6/7/6
f 9/13/7 11/6/7 12/8/7 10/14/7
f 3/4/2 7/6/2 11/6/2 9/4/2
f 1/1/1 3/4/1 9/4/1 10/1/1
f 12/8/8 11/6/8 16/6/8 15/8/8
f 16/6/2 14/6/2 26/6/2 28/6/2
f 5/8/9 12/8/9 15/8/9 13/8/9
f 7/6/10 5/8/10 13/8/10 14/6/10
f 11/6/11 7/6/11 14/6/11 16/6/11
f 17/1/1 19/1/1 23/1/1 21/1/1
f 12/8/12 5/8/12 18/8/12 20/8/12
f 10/14/13 12/8/13 20/8/13 19/14/13
f 1/1/14 10/1/14 19/1/14 17/1/14
f 24/8/15 22/8/15 29/1/15 31/1/15
f 18/8/6 17/10/6 21/10/6 22/8/6
f 20/8/3 18/8/3 22/8/3 24/8/3
f 19/14/7 20/8/7 24/8/7 23/14/7
f 25/8/4 27/8/4 36/8/4 34/8/4
f 15/8/7 16/6/7 28/6/7 27/8/7
f 13/8/4 15/8/4 27/8/4 25/8/4
f 14/6/6 13/8/6 25/8/6 26/6/6
f 22/8/6 21/1/6 29/1/6
f 21/1/1 23/1/1 31/1/1 29/1/1
f 35/6/3 34/8/3 36/8/3 37/6/3
f 26/6/6 25/8/6 34/8/6 35/6/6
f 28/6/2 26/6/2 35/6/2 37/6/2
usemtl Red
f 32/1/7 30/8/7 33/1/7
f 31/1/1 23/1/1 32/1/1 33/1/1
f 24/8/15 31/1/15 33/1/15 30/8/15
f 23/14/2 24/8/2 30/8/2 32/14/2
usemtl Green
f 28/6/2 37/6/2 41/6/2 39/6/2
f 38/8/7 39/6/7 41/6/7 40/8/7
f 40/8/7 41/6/7 45/6/7 44/8/7
f 27/8/1 28/6/1 39/6/1 38/8/1
f 40/8/3 36/8/3 47/8/3 49/8/3
f 43/6/3 42/8/3 44/8/3 45/6/3
f 36/8/4 40/8/4 44/8/4 42/8/4
f 37/6/6 36/8/6 42/8/6 43/6/6
f 41/6/2 37/6/2 43/6/2 45/6/2
f 47/8/4 46/8/4 48/8/4 49/8/4
f 38/8/7 40/8/7 49/8/7 48/8/7
f 36/8/6 27/8/6 46/8/6 47/8/6
f 27/8/1 38/8/1 48/8/1 46/8/1
